<?xml version="1.0" encoding="iso-8859-1"?>
<!-- Generator: Adobe Illustrator 19.0.0, SVG Export Plug-In . SVG Version: 6.00 Build 0)  -->
<svg version="1.1" id="Capa_1" xmlns="http://www.w3.org/2000/svg" xmlns:xlink="http://www.w3.org/1999/xlink" fill="#fff" x="0px" y="0px"
	 viewBox="0 0 512 512" style="enable-background:new 0 0 512 512;" xml:space="preserve">
<g>
	<g>
		<path d="M180.776,54.437c-4.018-7.245-13.148-9.86-20.392-5.841c-33.81,18.755-62.842,45.82-83.956,78.271
			c-4.518,6.943-2.552,16.235,4.391,20.753c6.944,4.518,16.235,2.552,20.753-4.392c18.452-28.359,43.821-52.011,73.363-68.398
			C182.179,70.812,184.794,61.682,180.776,54.437z"/>
	</g>
</g>
<g>
	<g>
		<path d="M442.617,88.418C397.872,43.653,338.381,19,275.102,19c-8.284,0-14.999,6.716-14.999,15s6.715,15,14.999,15
			c114.085,0,206.899,92.86,206.899,207s-92.814,207-206.899,207c-90.914,0-168.319-58.97-196.012-140.686l24.802-2.479
			c12.577-1.257,18.046-16.617,9.105-25.542l-49-48.909c-7.142-7.129-19.737-5.403-24.314,4.155L2.539,305.331
			c-7.004,10.52,1.405,24.491,13.977,23.239l31.951-3.194C77.369,420.305,166.221,493,275.102,493C406.04,493,512,386.998,512,256
			C512,192.696,487.359,133.181,442.617,88.418z"/>
	</g>
</g>
<g>
	<g>
		<path d="M275.103,121.001c-74.435,0-134.993,60.561-134.993,135s60.557,135,134.993,135s134.993-60.561,134.993-135
			S349.538,121.001,275.103,121.001z M263.994,308.188H204.95c-4.644,0-11.278-3.155-11.278-7.972v-16.108h-0.001
			c0-26.074,52.244-41.021,52.244-62.113c0-5.314-3.317-11.792-12.605-11.792c-6.634,0-12.439,3.322-12.439,12.456
			c0,4.816-5.142,9.466-13.6,9.466c-6.634,0-11.61-2.989-11.61-13.452c0-20.262,18.576-31.887,37.483-31.887
			c19.239,0,38.645,12.124,38.645,34.378c0,36.039-51.249,47.83-51.249,62.943v1.495h43.454c4.146,0,7.796,5.148,7.796,11.127
			S268.141,308.188,263.994,308.188z M352.392,282.615h-7.132v17.604c0,5.314-6.468,7.972-12.936,7.972s-12.937-2.657-12.937-7.972
			v-17.604h-38.81c-7.854-0.002-10.524-8.029-7.298-13.952l38.313-75.232c2.488-4.816,6.634-6.643,10.781-6.643
			c4.478,0,12.936,3.819,12.936,9.798c0,0.997-0.332,1.993-0.829,3.155l-29.356,58.958h14.263v-11.625
			c0-5.48,6.468-7.806,12.937-7.806c6.468,0,12.936,2.325,12.936,7.806v11.625h7.132c5.307,0,7.961,5.979,7.961,11.958
			S356.372,282.615,352.392,282.615z"/>
	</g>
</g>
<g>
</g>
<g>
</g>
<g>
</g>
<g>
</g>
<g>
</g>
<g>
</g>
<g>
</g>
<g>
</g>
<g>
</g>
<g>
</g>
<g>
</g>
<g>
</g>
<g>
</g>
<g>
</g>
<g>
</g>
</svg>
